<svg width="49" height="48" viewBox="0 0 49 48" fill="none" xmlns="http://www.w3.org/2000/svg">
<path d="M27.4163 19.0109C27.1042 19.0109 26.8506 18.7576 26.8506 18.4452V17.4839C26.8506 17.1719 27.1038 16.9182 27.4163 16.9182C27.7283 16.9182 27.9819 17.1715 27.9819 17.4839V18.4452C27.9819 18.7576 27.7283 19.0109 27.4163 19.0109Z" fill="#4CAF4F"/>
<path d="M25.0381 19.0109C24.7261 19.0109 24.4724 18.7576 24.4724 18.4452V17.4839C24.4724 17.1719 24.7257 16.9182 25.0381 16.9182C25.3501 16.9182 25.6038 17.1715 25.6038 17.4839V18.4452C25.6034 18.7576 25.3505 19.0109 25.0381 19.0109Z" fill="#4CAF4F"/>
<path d="M22.6599 19.0109C22.3479 19.0109 22.0942 18.7576 22.0942 18.4452V17.4839C22.0942 17.1719 22.3475 16.9182 22.6599 16.9182C22.9719 16.9182 23.2256 17.1715 23.2256 17.4839V18.4452C23.2256 18.7576 22.9723 19.0109 22.6599 19.0109Z" fill="#4CAF4F"/>
<path d="M27.4163 22.9421C27.1042 22.9421 26.8506 22.6889 26.8506 22.3765V21.4155C26.8506 21.1035 27.1038 20.8499 27.4163 20.8499C27.7283 20.8499 27.9819 21.1031 27.9819 21.4155V22.3765C27.9819 22.6889 27.7283 22.9421 27.4163 22.9421Z" fill="#4CAF4F"/>
<path d="M25.0381 22.9421C24.7261 22.9421 24.4724 22.6889 24.4724 22.3765V21.4155C24.4724 21.1035 24.7257 20.8499 25.0381 20.8499C25.3501 20.8499 25.6038 21.1031 25.6038 21.4155V22.3765C25.6034 22.6889 25.3505 22.9421 25.0381 22.9421Z" fill="#4CAF4F"/>
<path d="M22.6599 22.9421C22.3479 22.9421 22.0942 22.6889 22.0942 22.3765V21.4155C22.0942 21.1035 22.3475 20.8499 22.6599 20.8499C22.9719 20.8499 23.2256 21.1031 23.2256 21.4155V22.3765C23.2256 22.6889 22.9723 22.9421 22.6599 22.9421Z" fill="#4CAF4F"/>
<path d="M27.4163 26.8734C27.1042 26.8734 26.8506 26.6202 26.8506 26.3078V25.3464C26.8506 25.0344 27.1038 24.7808 27.4163 24.7808C27.7283 24.7808 27.9819 25.034 27.9819 25.3464V26.3078C27.9819 26.6202 27.7283 26.8734 27.4163 26.8734Z" fill="#4CAF4F"/>
<path d="M25.0381 26.8734C24.7261 26.8734 24.4724 26.6202 24.4724 26.3078V25.3464C24.4724 25.0344 24.7257 24.7808 25.0381 24.7808C25.3501 24.7808 25.6038 25.034 25.6038 25.3464V26.3078C25.6034 26.6202 25.3505 26.8734 25.0381 26.8734Z" fill="#4CAF4F"/>
<path d="M22.6599 26.8734C22.3479 26.8734 22.0942 26.6202 22.0942 26.3078V25.3464C22.0942 25.0344 22.3475 24.7808 22.6599 24.7808C22.9719 24.7808 23.2256 25.034 23.2256 25.3464V26.3078C23.2256 26.6202 22.9723 26.8734 22.6599 26.8734Z" fill="#4CAF4F"/>
<path d="M27.4163 30.8039C27.1042 30.8039 26.8506 30.5506 26.8506 30.2382V29.2769C26.8506 28.9648 27.1038 28.7112 27.4163 28.7112C27.7283 28.7112 27.9819 28.9644 27.9819 29.2769V30.2382C27.9819 30.5506 27.7283 30.8039 27.4163 30.8039Z" fill="#4CAF4F"/>
<path d="M25.0381 30.8039C24.7261 30.8039 24.4724 30.5506 24.4724 30.2382V29.2769C24.4724 28.9648 24.7257 28.7112 25.0381 28.7112C25.3501 28.7112 25.6038 28.9644 25.6038 29.2769V30.2382C25.6034 30.5506 25.3505 30.8039 25.0381 30.8039Z" fill="#4CAF4F"/>
<path d="M22.6599 30.8039C22.3479 30.8039 22.0942 30.5506 22.0942 30.2382V29.2769C22.0942 28.9648 22.3475 28.7112 22.6599 28.7112C22.9719 28.7112 23.2256 28.9644 23.2256 29.2769V30.2382C23.2256 30.5506 22.9723 30.8039 22.6599 30.8039Z" fill="#4CAF4F"/>
<path d="M27.4163 34.7349C27.1042 34.7349 26.8506 34.4816 26.8506 34.1692V33.2083C26.8506 32.8962 27.1038 32.6426 27.4163 32.6426C27.7283 32.6426 27.9819 32.8958 27.9819 33.2083V34.1692C27.9819 34.4812 27.7283 34.7349 27.4163 34.7349Z" fill="#4CAF4F"/>
<path d="M25.0381 34.7349C24.7261 34.7349 24.4724 34.4816 24.4724 34.1692V33.2083C24.4724 32.8962 24.7257 32.6426 25.0381 32.6426C25.3501 32.6426 25.6038 32.8958 25.6038 33.2083V34.1692C25.6034 34.4812 25.3505 34.7349 25.0381 34.7349Z" fill="#4CAF4F"/>
<path d="M22.6599 34.7349C22.3479 34.7349 22.0942 34.4816 22.0942 34.1692L22.0946 33.2083C22.0946 32.8962 22.3479 32.6426 22.6603 32.6426C22.9723 32.6426 23.226 32.8958 23.226 33.2083V34.1692C23.2256 34.4812 22.9723 34.7349 22.6599 34.7349V34.7349Z" fill="#4CAF4F"/>
<path d="M6.50047 38.6471C6.50047 38.9592 6.75372 39.2128 7.06615 39.2128H41.5139C41.8259 39.2128 42.0796 38.9596 42.0796 38.6471C42.0796 38.3351 41.8263 38.0815 41.5139 38.0815H40.4682V21.8402C40.4682 21.5281 40.215 21.2745 39.9025 21.2745L30.6668 21.2749V9.56576C30.6668 9.36774 30.5635 9.18471 30.3946 9.08214C30.2262 8.97919 30.0156 8.97287 29.8404 9.06399L19.3401 14.531C19.1527 14.6284 19.0359 14.8217 19.0359 15.0327V25.2604H8.87388C8.56186 25.2604 8.3082 25.5137 8.3082 25.8261V38.0816H7.06489C6.75287 38.0812 6.5 38.3344 6.5 38.6468L6.50047 38.6471ZM30.667 29.8422H39.3374V38.0819L30.667 38.0815V29.8422ZM30.667 25.9113H39.3374V28.7113L30.667 28.7109V25.9113ZM30.667 22.4056H39.3374V24.7808H30.667V22.4056ZM20.1667 15.3762L29.5353 10.4982V38.081H20.1667V15.3762ZM12.2359 33.5635C12.2359 32.3895 13.166 31.4341 14.3096 31.4341C15.4531 31.4341 16.3837 32.3891 16.3837 33.5635V38.0817H12.2359V33.5635ZM9.43952 26.3916H19.0358V38.0815H17.515V33.5633C17.515 31.7657 16.0776 30.303 14.3096 30.303C12.5424 30.303 11.105 31.7653 11.105 33.5633V38.0815H9.43952V26.3916Z" fill="#4CAF4F"/>
</svg>
