<svg width="48" height="48" viewBox="0 0 48 48" fill="none" xmlns="http://www.w3.org/2000/svg">
<path d="M24.2251 29.4188C26.1086 27.8343 27.4593 25.7089 28.0941 23.3309C28.7289 20.9528 28.6171 18.437 27.7738 16.1246C26.9306 13.8123 25.3966 11.8151 23.3799 10.404C21.3633 8.99284 18.9615 8.23596 16.5001 8.23596C14.0388 8.23596 11.6369 8.99284 9.62028 10.404C7.60362 11.8151 6.06966 13.8123 5.22638 16.1246C4.38309 18.437 4.27127 20.9528 4.90607 23.3309C5.54088 25.7089 6.89159 27.8343 8.77511 29.4188C5.72043 30.8011 3.09183 32.9765 1.16261 35.7188C0.820202 36.2064 0.685157 36.8098 0.787092 37.3968C0.889027 37.9838 1.21962 38.5065 1.70636 38.85C2.08371 39.1198 2.53628 39.2641 3.00011 39.2625C3.36088 39.2636 3.71652 39.1771 4.03655 39.0106C4.35658 38.844 4.63145 38.6024 4.83761 38.3063C6.1522 36.4339 7.89829 34.9056 9.92824 33.8505C11.9582 32.7954 14.2123 32.2446 16.5001 32.2446C18.7879 32.2446 21.042 32.7954 23.072 33.8505C25.1019 34.9056 26.848 36.4339 28.1626 38.3063C28.3256 38.5639 28.5392 38.7857 28.7905 38.9582C29.0418 39.1307 29.3255 39.2504 29.6245 39.3099C29.9234 39.3694 30.2313 39.3676 30.5295 39.3045C30.8278 39.2415 31.1101 39.1185 31.3593 38.943C31.6085 38.7675 31.8195 38.5432 31.9794 38.2837C32.1393 38.0242 32.2449 37.7349 32.2896 37.4334C32.3343 37.1319 32.3173 36.8244 32.2396 36.5297C32.1619 36.235 32.0252 35.9591 31.8376 35.7188C29.9084 32.9765 27.2798 30.8011 24.2251 29.4188ZM9.00011 20.25C9.00011 18.7667 9.43997 17.3166 10.2641 16.0833C11.0882 14.8499 12.2595 13.8886 13.63 13.3209C15.0004 12.7533 16.5084 12.6048 17.9633 12.8942C19.4181 13.1835 20.7545 13.8978 21.8034 14.9467C22.8523 15.9956 23.5666 17.332 23.856 18.7869C24.1454 20.2417 23.9969 21.7497 23.4292 23.1202C22.8615 24.4906 21.9003 25.662 20.6669 26.4861C19.4335 27.3102 17.9835 27.75 16.5001 27.75C14.511 27.75 12.6033 26.9599 11.1968 25.5533C9.79028 24.1468 9.00011 22.2392 9.00011 20.25ZM46.5751 38.85C46.1978 39.1198 45.7452 39.2641 45.2814 39.2625C44.9212 39.2605 44.5666 39.1727 44.2471 39.0064C43.9276 38.8401 43.6522 38.6001 43.4439 38.3063C42.1264 36.4372 40.3796 34.9116 38.3502 33.8578C36.3208 32.8039 34.0681 32.2525 31.7814 32.25C31.1846 32.25 30.6123 32.013 30.1904 31.591C29.7684 31.1691 29.5314 30.5968 29.5314 30C29.5314 29.4033 29.7684 28.831 30.1904 28.4091C30.6123 27.9871 31.1846 27.75 31.7814 27.75C33.7705 27.75 35.6781 26.9599 37.0847 25.5533C38.4912 24.1468 39.2814 22.2392 39.2814 20.25C39.2814 18.2609 38.4912 16.3533 37.0847 14.9467C35.6781 13.5402 33.7705 12.75 31.7814 12.75C31.0965 12.7488 30.4149 12.8434 29.7564 13.0313C29.4704 13.1166 29.1703 13.1442 28.8736 13.1124C28.5768 13.0806 28.2894 12.9901 28.028 12.8461C27.7666 12.7022 27.5364 12.5077 27.3509 12.274C27.1653 12.0402 27.0282 11.7719 26.9473 11.4846C26.8665 11.1973 26.8436 10.8969 26.88 10.6007C26.9164 10.3045 27.0114 10.0185 27.1594 9.75934C27.3074 9.50019 27.5055 9.27308 27.7421 9.09122C27.9787 8.90936 28.2491 8.77639 28.5376 8.70004C29.5926 8.39968 30.6844 8.24822 31.7814 8.25004C34.2443 8.24289 36.6497 8.99498 38.6699 10.4039C40.6901 11.8129 42.227 13.8102 43.0714 16.1239C43.9157 18.4377 44.0265 20.9554 43.3886 23.3344C42.7506 25.7134 41.3951 27.8379 39.5064 29.4188C42.561 30.8011 45.1896 32.9765 47.1189 35.7188C47.2908 35.9594 47.4133 36.2317 47.4791 36.52C47.5449 36.8083 47.5527 37.1068 47.5021 37.3982C47.4515 37.6895 47.3435 37.9679 47.1844 38.2172C47.0252 38.4664 46.8181 38.6815 46.5751 38.85V38.85Z" fill="#4CAF4F"/>
</svg>
