<svg width="48" height="48" viewBox="0 0 48 48" fill="none" xmlns="http://www.w3.org/2000/svg">
<path d="M24.9033 18.3938L24.9031 23.4167V23.4168V23.4752C24.9031 23.5917 24.9181 23.7047 24.9463 23.8125L24.8985 24.6302L24.896 24.6742C24.8848 24.8659 24.8101 25.0335 24.684 25.1598L26.1265 24.2148C26.0443 24.2013 25.9622 24.1722 25.8803 24.1276L25.4841 23.9119V23.4752V23.4168V18.3938M24.9033 18.3938V18.3938L25.1937 18.3938L25.4841 18.3938M24.9033 18.3938C24.9033 18.5542 25.0336 18.6842 25.1937 18.6842C25.3542 18.6842 25.4841 18.5539 25.4841 18.3938M24.9033 18.3938H25.1937H25.4841M19.283 17.9448L19.2831 17.9449L19.283 17.9448ZM19.283 17.9448C19.0701 18.3159 18.5583 18.4544 18.1847 18.2398L19.283 17.9448ZM17.852 18.8175L17.8514 18.8172C17.577 18.6588 17.3792 18.3993 17.2973 18.0953L17.2972 18.0948L17.2972 18.0947L17.2968 18.0932C17.2302 17.8427 17.247 17.5806 17.3428 17.3431V17.1486C17.172 17.4436 17.1263 17.7878 17.2146 18.1169C17.3025 18.4458 17.5139 18.7208 17.8093 18.892L17.852 18.8175ZM25.0955 25.5709L25.1555 25.631L25.0954 25.5709L25.0948 25.5716C24.844 25.8219 24.5075 25.9601 24.1543 25.9601C24.1543 25.9601 24.1542 25.9601 24.1542 25.9601C23.6741 25.9601 23.253 25.7049 23.0192 25.3229C22.9951 25.3352 22.9708 25.3471 22.9462 25.3585L25.0955 25.5709ZM17.9192 17.4835C17.8375 17.6252 17.8163 17.7867 17.8585 17.9439C17.8585 17.944 17.8585 17.944 17.8585 17.9441L17.8586 17.9442L17.8587 17.9448C17.9005 18.1012 17.9989 18.2307 18.1417 18.3142C18.1418 18.3142 18.1418 18.3142 18.1419 18.3143L17.9192 17.4835Z" fill="#4CAF4F" stroke="#4CAF4F" stroke-width="1.33333"/>
<path d="M16.1251 30.7917C15.9465 30.8992 15.7157 30.8412 15.6089 30.6629C15.502 30.4848 15.5599 30.2536 15.7378 30.1467L16.1251 30.7917ZM11.7467 26.427C11.7614 26.4006 11.7751 26.376 11.7877 26.3531C11.839 26.2608 11.8737 26.1983 11.8876 26.1732L11.9634 26.2131C11.9166 26.2975 11.8707 26.3802 11.8256 26.4614C11.7992 26.4515 11.7729 26.4401 11.7467 26.427ZM22.1552 28.7211C22.3074 28.6296 22.4149 28.485 22.4577 28.3132C22.5006 28.1417 22.474 27.9634 22.3828 27.8112L22.1552 28.7211Z" fill="#4CAF4F" stroke="#4CAF4F" stroke-width="1.33333"/>
<path d="M27.8527 28.0933C27.7587 28.035 27.6732 27.966 27.5976 27.888L26.8782 27.5117L26.8782 27.5116L26.8381 27.4907C26.7243 27.4311 26.6083 27.4029 26.4965 27.4026L27.8527 28.0933ZM26.1717 26.862C26.1718 26.862 26.1719 26.8619 26.1721 26.8619L26.2275 27.0842L26.2275 27.0842L26.3126 27.4256L26.3125 27.4256L26.1717 26.862ZM30.3872 33.7857C30.387 33.7856 30.3869 33.7855 30.3867 33.7854L30.3872 33.7857ZM25.845 30.1872L25.8464 30.188L25.845 30.1872Z" fill="#4CAF4F" stroke="#4CAF4F" stroke-width="1.33333"/>
</svg>
