<svg width="47" height="30" viewBox="0 0 47 30" fill="none" xmlns="http://www.w3.org/2000/svg">
<g id="Logo" clip-path="url(#clip0_120_987)">
<path id="Vector" d="M43.9965 4.41126C43.9965 4.44508 43.9965 4.48734 43.9877 4.51271C43.9437 4.84239 43.9437 5.17207 43.9701 5.51021C43.9877 5.59475 44.0053 5.67928 44.0758 5.74691C44.1903 5.87371 44.3664 5.84835 44.4369 5.69619C44.4722 5.62011 44.4722 5.54402 44.4545 5.46795C44.3664 5.14671 44.3488 4.80858 44.34 4.47889C44.34 4.46198 44.34 4.43662 44.34 4.41126C44.4369 4.40281 44.525 4.39435 44.6042 4.39435C44.6659 4.3859 44.7188 4.37745 44.7628 4.35208C44.8949 4.28446 44.8949 4.14075 44.754 4.07312C44.7011 4.04776 44.6307 4.03931 44.569 4.03931C44.3488 4.04776 44.1287 4.04776 43.9084 4.04776C43.8292 4.04776 43.7499 4.05622 43.6706 4.06467C43.6266 4.07312 43.5737 4.07312 43.5385 4.09849C43.4768 4.12384 43.4417 4.16611 43.4417 4.22528C43.4504 4.28446 43.4768 4.31827 43.5385 4.34364C43.5737 4.369 43.6178 4.37745 43.6618 4.37745C43.7675 4.3859 43.882 4.40281 43.9965 4.41126ZM46.4186 4.80012C46.4186 4.80858 46.4274 4.81703 46.4274 4.81703C46.4627 5.04527 46.4979 5.26506 46.5243 5.48485C46.5332 5.56093 46.542 5.62856 46.5948 5.68773C46.7093 5.83144 46.8855 5.81453 46.9647 5.66238C47 5.58629 47.0087 5.51021 46.9912 5.42568C46.9383 5.17207 46.9119 4.91847 46.859 4.67332C46.8238 4.52115 46.7798 4.37745 46.7357 4.24219C46.7093 4.15766 46.6477 4.09848 46.542 4.09003C46.4363 4.07312 46.357 4.12384 46.3129 4.19993C46.2601 4.26755 46.2161 4.33518 46.1808 4.41126C46.1192 4.54652 46.0663 4.68178 45.9959 4.80858C45.987 4.84239 45.9782 4.86775 45.9606 4.89311C45.9519 4.8762 45.9431 4.86775 45.9431 4.86775C45.8285 4.65641 45.7228 4.44508 45.6083 4.24219C45.5907 4.22528 45.5819 4.20838 45.5731 4.19147C45.5203 4.11539 45.4586 4.07312 45.3617 4.07312C45.2736 4.08157 45.2031 4.1323 45.1592 4.20838C45.1415 4.24219 45.1415 4.26755 45.1327 4.30137C45.0975 4.57188 45.0534 4.84239 45.0182 5.1129C45.0006 5.26506 44.9918 5.41722 44.9918 5.56939C44.983 5.6032 44.9918 5.64546 45.0094 5.67928C45.027 5.74691 45.0799 5.78918 45.1503 5.79763C45.2384 5.80609 45.3 5.78072 45.3265 5.71309C45.3529 5.66238 45.3617 5.62011 45.3705 5.57784C45.4058 5.42568 45.4322 5.28197 45.4586 5.13826C45.4762 5.05373 45.485 4.9861 45.5115 4.89311C45.5291 4.92692 45.5466 4.95229 45.5643 4.97764C45.6435 5.07909 45.7228 5.18053 45.8197 5.26506C45.9166 5.33269 45.9959 5.32424 46.0751 5.24815C46.0928 5.23125 46.1016 5.2228 46.1192 5.20588C46.1985 5.08754 46.2954 4.96919 46.3746 4.85084C46.3922 4.83393 46.401 4.81703 46.4186 4.80012Z" fill="#3A3B7B"/>
<path id="Vector_2" d="M26.1244 4.57736C26.0632 4.73801 26.0515 4.85376 26.0798 4.94996C26.111 5.08077 26.192 5.1236 26.302 5.09033C27.3366 4.8448 29.6051 5.54172 30.445 5.73596C30.6431 5.77675 30.8042 5.53133 30.6691 5.3113C30.4718 5.09822 28.2043 4.18592 27.3391 4.13618C26.9999 4.11779 26.3936 4.03432 26.1244 4.57736Z" fill="#3A3B7B"/>
<path id="Vector_3" d="M34.9904 1.62435C35.1006 1.68543 35.1622 1.7437 35.1927 1.80879C35.238 1.89419 35.2141 1.95327 35.1379 1.98341C34.4541 2.30374 33.5441 3.68283 33.1768 4.15847C33.0877 4.26788 32.8823 4.2043 32.8513 4.02437C32.8577 3.82092 33.6643 2.3243 34.1145 1.91667C34.2915 1.75752 34.5837 1.44525 34.9904 1.62435Z" fill="#3A3B7B"/>
<path id="Vector_4" d="M29.5445 0.945409C29.6769 0.849592 29.8146 0.816015 29.8849 0.878284C30.9167 1.72518 31.4638 3.06632 31.8026 4.2941C31.8154 4.32271 31.8162 4.36375 31.806 4.40657C31.8017 4.44317 31.7739 4.48184 31.7296 4.51175C31.6824 4.54478 31.6417 4.55484 31.6225 4.52638C31.1703 3.93605 28.5875 1.63918 29.5445 0.945409Z" fill="#3A3B7B"/>
<path id="Vector_5" d="M7.69524 15.6285C7.94253 15.4518 8.21137 15.3047 8.49586 15.1905C8.7935 15.1089 9.11075 15.1224 9.39966 15.2291C9.68851 15.3359 9.93338 15.53 10.0971 15.7822C10.2435 16.0337 10.3008 16.3241 10.2604 16.6096C10.2199 16.8951 10.084 17.1602 9.87289 17.3651C9.70926 17.5312 9.52348 17.6759 9.3205 17.7954C8.41582 18.3564 7.50308 18.8866 6.59039 19.4475C6.40363 19.5879 6.20551 19.7139 5.99793 19.8241C5.68217 19.9752 5.32132 20.0157 4.97776 19.9385C4.6342 19.8614 4.32955 19.6713 4.11648 19.4014C3.95719 19.2103 3.82277 19.0013 3.71616 18.779C2.8515 17.0347 1.95481 15.2981 1.12217 13.523C0.737866 12.7546 0.425627 11.8709 0.121393 11.018C-0.010233 10.7702 -0.0359366 10.4829 0.0497553 10.2171C0.135447 9.9514 0.325774 9.72823 0.580249 9.5951C0.834727 9.46196 1.13327 9.4294 1.4124 9.50427C1.69152 9.57915 1.92921 9.75559 2.0749 9.99602C2.52271 10.5672 2.91911 11.1739 3.25981 11.8095C4.12448 13.3463 4.94912 14.8831 5.78176 16.3738C5.83024 16.4562 5.8837 16.5357 5.94188 16.612C6.56859 16.3591 7.15803 16.0285 7.69524 15.6285Z" fill="#3A3B7B"/>
<path id="Vector_6" d="M16.6355 15.0924C14.658 17.313 11.3434 16.7521 9.67813 13.8936C8.4932 11.865 8.28505 8.51469 10.8631 6.40156C11.4136 5.95916 12.0718 5.65779 12.7765 5.52556C13.6405 5.40668 14.5216 5.55297 15.2937 5.94354C16.0658 6.3341 16.6896 6.94893 17.0759 7.70019C18.4849 10.1591 18.2848 13.2942 16.6355 15.0924ZM15.8349 9.91322C15.6248 9.30896 15.2033 8.79309 14.6419 8.4532C14.3243 8.2359 13.9383 8.13024 13.549 8.15404C13.1596 8.17783 12.7907 8.32962 12.5043 8.58383C11.3595 9.55975 11.1192 11.8727 11.9519 13.2481C12.058 13.4724 12.2139 13.6717 12.4086 13.8322C12.6034 13.9926 12.8324 14.1102 13.0795 14.1768C13.3265 14.2434 13.5858 14.2574 13.8391 14.2178C14.0924 14.1781 14.3336 14.0859 14.5459 13.9474C15.1665 13.4856 15.6218 12.8497 15.8485 12.1281C16.0752 11.4065 16.0621 10.635 15.8109 9.92093L15.8349 9.91322Z" fill="#3A3B7B"/>
<path id="Vector_7" d="M24.7055 10.8815C24.5031 10.9233 24.294 10.9258 24.0904 10.8888C23.887 10.8518 23.6932 10.7762 23.5207 10.6663C23.3697 10.5834 23.2397 10.4695 23.14 10.3326C23.0405 10.1957 22.9737 10.0394 22.9446 9.87472C22.9155 9.71014 22.9248 9.54141 22.9718 9.38066C23.0188 9.21991 23.1024 9.07115 23.2164 8.94507C23.4152 8.69171 23.6973 8.51033 24.0171 8.43025C24.8518 8.19772 25.7112 8.05595 26.579 8.00764C26.7697 7.98635 26.9629 8.00184 27.1472 8.05319C27.3316 8.10459 27.5033 8.19074 27.6525 8.30674C27.8016 8.42267 27.9252 8.56609 28.0158 8.72849C28.1064 8.89089 28.1623 9.06904 28.1802 9.25247C28.4304 10.1534 28.4578 11.0981 28.2603 12.0111C27.5398 14.9618 25.0578 15.9761 22.2717 15.0309C21.4896 14.7782 20.8039 14.3074 20.3022 13.6785C19.633 12.9212 19.1586 12.0237 18.9171 11.0582C18.7214 10.1985 18.7428 9.30632 18.9797 8.45615C19.2164 7.60599 19.6616 6.8225 20.2781 6.17112C20.8632 5.46314 21.6226 4.90597 22.4879 4.54976C23.0346 4.26052 23.6744 4.17828 24.2813 4.31924C24.4189 4.3558 24.5439 4.42705 24.6432 4.52559C24.7425 4.62414 24.8125 4.74638 24.846 4.87966C24.8795 5.01292 24.8752 5.15237 24.8336 5.28353C24.792 5.41468 24.7147 5.53277 24.6095 5.62554C24.4096 5.79925 24.1924 5.95367 23.961 6.08659C23.2492 6.52164 22.6298 7.08223 22.1356 7.73867C21.8116 8.16345 21.5885 8.65125 21.482 9.16764C21.3755 9.68404 21.3881 10.2166 21.5191 10.7278C21.7007 11.4249 22.1036 12.0506 22.672 12.5182C24.4333 14.0551 26.7231 12.572 26.3228 10.4742C25.7384 10.6126 25.226 10.7586 24.7055 10.8815Z" fill="#3A3B7B"/>
<path id="Vector_8" d="M35.4659 15.2153C32.8639 16.7522 29.9016 15.2153 29.2531 11.988C28.7807 9.68279 29.6774 6.45543 32.8159 5.22597C33.4836 4.97001 34.2079 4.88014 34.9215 4.9647C35.7788 5.11534 36.5654 5.52044 37.17 6.12289C37.7747 6.72534 38.1672 7.49474 38.2921 8.32269C38.8205 11.0659 37.6196 13.9936 35.4659 15.2153ZM36.3706 10.0439C36.3698 9.40557 36.1346 8.78787 35.7061 8.29962C35.4771 7.99762 35.146 7.78124 34.7693 7.68732C34.3926 7.59347 33.9937 7.62787 33.6405 7.7848C32.2314 8.36876 31.2386 10.4896 31.5989 12.0495C31.6265 12.2943 31.7093 12.5304 31.8418 12.7412C31.9743 12.9521 32.1531 13.1326 32.3659 13.2702C32.5786 13.4078 32.8201 13.4991 33.0735 13.5378C33.3268 13.5764 33.586 13.5615 33.8326 13.4941C34.5775 13.2444 35.2224 12.7777 35.6773 12.1591C36.1323 11.5406 36.3747 10.8011 36.3706 10.0439Z" fill="#3A3B7B"/>
<path id="Vector_9" d="M40.9234 15.8609C40.8841 16.1421 40.7301 16.3969 40.4951 16.5691C40.2601 16.7413 39.9635 16.8169 39.6705 16.7792C39.3775 16.7415 39.112 16.5936 38.9326 16.368C38.7532 16.1425 38.6745 15.8578 38.7137 15.5766C38.753 15.2953 38.9071 15.0406 39.142 14.8684C39.377 14.6962 39.6737 14.6206 39.9667 14.6583C40.2597 14.696 40.5251 14.8439 40.7046 15.0694C40.884 15.295 40.9628 15.5797 40.9234 15.8609ZM40.2269 5.49498C40.3792 5.27178 40.6025 5.1018 40.8637 5.01041C41.1248 4.91901 41.4098 4.91109 41.676 4.98783C41.9467 5.05282 42.1858 5.20508 42.3534 5.4191C42.521 5.63313 42.6069 5.89593 42.5968 6.1635C42.5614 6.59268 42.4946 7.01893 42.3966 7.43905C42.1324 8.86064 41.8762 10.2822 41.596 11.6884C41.4679 12.2494 41.2998 12.7872 41.1156 13.3558C41.0515 13.5336 40.9445 13.6942 40.8034 13.8246C40.7156 13.9227 40.6035 13.9979 40.4775 14.0433C40.3514 14.0888 40.2154 14.1029 40.0821 14.0845C39.9488 14.0661 39.8225 14.0158 39.7148 13.9381C39.6072 13.8604 39.5217 13.758 39.4664 13.6402C39.3711 13.4289 39.3194 13.2018 39.3142 12.9717C39.3142 12.0188 39.3142 11.0583 39.3783 10.0978C39.4871 8.72698 39.7011 7.36575 40.0187 6.02518C40.0561 5.84558 40.1266 5.67383 40.2269 5.51803V5.49498Z" fill="#3A3B7B"/>
<path id="Vector_10" fill-rule="evenodd" clip-rule="evenodd" d="M4.31263 22.0356C4.2181 22.2382 4.19218 22.464 4.23837 22.6813C4.2691 22.9677 4.3366 23.2495 4.43933 23.5201C4.56759 23.8515 4.71111 24.1792 4.88807 24.5831C4.92876 24.676 4.97129 24.773 5.01579 24.8751C5.25443 25.4223 5.55386 26.1216 5.95326 27.1336C6.06631 27.4211 6.1667 27.711 6.26779 28.0028C6.30862 28.1207 6.34961 28.2391 6.39156 28.3576C6.54193 28.7792 6.80067 29.1579 7.14364 29.458C7.28927 29.623 7.48244 29.7432 7.69904 29.8033C7.91988 29.8646 8.15474 29.8607 8.37323 29.7922C8.59171 29.7236 8.7836 29.5935 8.924 29.4188C9.06164 29.2475 9.14349 29.041 9.1594 28.8254C9.2487 28.4053 9.21822 27.9697 9.07104 27.5647C8.83745 26.8922 8.57136 26.2187 8.26452 25.56L8.26311 25.5571C7.75833 24.5266 7.24523 23.5032 6.70784 22.4793L6.70382 22.4721C6.5465 22.2054 6.34206 21.9669 6.09967 21.7675C5.94232 21.5895 5.72526 21.4694 5.48556 21.428C5.24076 21.3858 4.98827 21.4283 4.77319 21.5482C4.56972 21.6597 4.40843 21.8304 4.31263 22.0356Z" fill="#3A3B7B"/>
<path id="Vector_11" fill-rule="evenodd" clip-rule="evenodd" d="M12.0224 19.498C11.2309 19.3013 10.4043 19.2726 9.60018 19.414C8.97737 19.4729 8.36482 19.6108 7.93947 19.8839C7.72314 20.0229 7.54823 20.2014 7.45094 20.4282C7.35311 20.6564 7.34063 20.9172 7.42079 21.2079C7.56717 21.7403 7.75725 22.2579 7.94666 22.7739L7.97734 22.8575L7.97808 22.8594C8.54839 24.3584 9.12414 25.8524 9.70513 27.3412C9.77288 27.5758 9.86869 27.8022 9.99062 28.0156L9.9929 28.0196C10.154 28.2848 10.3606 28.522 10.604 28.7213C10.7257 28.8308 10.8762 28.9066 11.0395 28.9405C11.2043 28.9746 11.3757 28.9647 11.535 28.9117C11.6944 28.8588 11.8356 28.7649 11.9431 28.6402C12.049 28.5175 12.1182 28.3698 12.1437 28.2125C12.2487 27.7853 12.2151 27.3374 12.0472 26.9291C11.9948 26.7916 11.9537 26.6512 11.9104 26.5033C11.896 26.454 11.8814 26.4039 11.8659 26.3528C13.1958 25.8539 14.6109 25.183 15.1085 23.6223C15.3033 23.0829 15.3195 22.4989 15.1549 21.9503C14.9901 21.4011 14.6521 20.9143 14.1873 20.5569C13.5548 20.0566 12.8159 19.6952 12.0224 19.498ZM9.82847 21.4123C9.85466 21.4051 9.88104 21.3984 9.9075 21.3921C10.7733 21.2615 11.6591 21.4355 12.4019 21.8821C12.7292 22.1006 12.8633 22.3434 12.8863 22.5769C12.9101 22.8174 12.8189 23.0781 12.6359 23.3286C12.2901 23.8018 11.6589 24.1806 11.0888 24.2512C10.6732 23.3325 10.2511 22.3767 9.82847 21.4123Z" fill="#3A3B7B"/>
<path id="Vector_12" d="M17.2991 17.8165C18.2417 17.3988 19.4092 17.3266 20.3228 17.6203C20.5529 17.6847 20.7525 17.8238 20.8876 18.0139C21.0217 18.2029 21.0836 18.4306 21.0629 18.6583C21.0616 18.806 21.0238 18.9514 20.9527 19.0826C20.8803 19.2161 20.7755 19.3309 20.6471 19.4174C20.5187 19.5038 20.3706 19.5594 20.2151 19.5792C20.0596 19.5991 19.9015 19.5828 19.754 19.5316L19.7428 19.5277L19.7322 19.5223C19.6568 19.4844 19.5766 19.4559 19.4937 19.4373L19.4884 19.4362C18.8457 19.2724 18.2395 19.5438 18.0181 19.8774C17.9125 20.0364 17.8994 20.197 17.9873 20.343C18.0815 20.4994 18.3126 20.675 18.7801 20.8001C18.9087 20.8339 19.0405 20.8666 19.1741 20.8998C19.5438 20.9917 19.928 21.0872 20.2995 21.2194L20.3009 21.22C22.0148 21.8458 22.653 23.1421 22.4345 24.3613C22.2184 25.5669 21.1693 26.6642 19.5916 26.923C19.0176 27.0451 18.4201 27.0213 17.8585 26.854C17.2954 26.6861 16.7879 26.3799 16.3863 25.9654L16.3758 25.9546C16.2491 25.7985 16.1638 25.615 16.126 25.4204C16.0912 25.2448 16.1095 25.0633 16.1787 24.8972C16.2474 24.7322 16.3637 24.5894 16.5138 24.4853C16.6723 24.3673 16.8634 24.2965 17.0634 24.2818C17.2628 24.2671 17.4623 24.3087 17.6373 24.4013C17.8121 24.4824 17.9748 24.5858 18.1207 24.7088L18.1235 24.711C18.3817 24.9377 18.6941 24.9968 18.9937 24.942C19.2977 24.8866 19.5835 24.7139 19.7673 24.4849C19.95 24.2573 20.0233 23.987 19.9363 23.7245C19.8487 23.4601 19.5854 23.164 19.007 22.9163C18.8558 22.8547 18.699 22.805 18.5359 22.7566C18.492 22.7436 18.4472 22.7306 18.402 22.7174C18.2814 22.6823 18.1573 22.6461 18.0357 22.6062C17.9519 22.5788 17.8687 22.5528 17.7864 22.5271C17.5614 22.4567 17.3421 22.3882 17.131 22.2963C16.6715 22.1461 16.2746 21.8578 15.9992 21.474C15.7227 21.0887 15.5836 20.628 15.6025 20.1605C15.604 19.0214 16.3515 18.2367 17.2991 17.8165Z" fill="#3A3B7B"/>
<path id="Vector_13" d="M29.2486 17.695C29.0659 17.6094 28.8638 17.5687 28.6606 17.5767C28.4574 17.5847 28.2594 17.6411 28.0846 17.741C27.9109 17.8401 27.7655 17.9789 27.6613 18.1451C27.5658 18.285 27.4996 18.4415 27.4667 18.6058C27.4337 18.7699 27.4345 18.9387 27.4689 19.1025C27.503 19.313 27.5407 19.5177 27.578 19.7196C27.6397 20.0537 27.6997 20.3802 27.7393 20.7132L27.7408 20.7217C27.831 21.2438 27.8782 21.772 27.8824 22.3012L27.8828 22.3087C27.9136 22.8803 27.7107 23.4407 27.3176 23.8711L27.3114 23.8788C27.1835 24.0361 27.0124 24.1562 26.8174 24.2256C26.6224 24.295 26.4112 24.3109 26.2073 24.2716C26.0033 24.2324 25.8149 24.1394 25.6629 24.0032C25.5109 23.867 25.4012 23.6923 25.3465 23.4998C25.2297 23.094 25.162 22.6766 25.1449 22.2559L25.3444 19.2068C25.3474 19.167 25.3507 19.1261 25.3541 19.0849C25.3617 18.9923 25.3695 18.8979 25.3727 18.81C25.3774 18.6805 25.3734 18.5474 25.342 18.4214C25.3098 18.2926 25.2487 18.17 25.1402 18.0657C25.0327 17.9624 24.8877 17.8862 24.7052 17.8344C24.3752 17.7427 24.0962 17.7456 23.8636 17.8403C23.631 17.935 23.4716 18.1109 23.3588 18.314C23.2469 18.5154 23.175 18.7539 23.1206 18.9927C23.0802 19.17 23.0478 19.356 23.017 19.5331C23.0063 19.5941 22.9959 19.6541 22.9853 19.7123L22.9851 19.714C22.8202 20.6852 22.7711 21.6713 22.8388 22.6532C22.8514 23.1839 22.9667 23.7077 23.1789 24.1978C23.4182 24.8303 23.8518 25.3783 24.4223 25.7694C24.994 26.1614 25.6762 26.3774 26.3787 26.3888C27.0811 26.4002 27.7706 26.2065 28.3558 25.8334C28.9401 25.4608 29.3929 24.9268 29.6544 24.302C30.0201 23.5062 30.1919 22.6407 30.1564 21.7715C30.1349 21.1369 30.0989 20.4974 30.0631 19.8612C30.0456 19.5491 30.028 19.2377 30.0123 18.9282C30.0044 18.6178 29.8978 18.3172 29.7067 18.0667C29.5884 17.9083 29.4311 17.7806 29.2486 17.695Z" fill="#3A3B7B"/>
<path id="Vector_14" d="M35.7175 22.4763C35.699 22.4989 35.6794 22.5223 35.659 22.5466C35.5104 21.7235 35.3726 20.9007 35.2346 20.0766C35.1851 19.781 35.1354 19.4841 35.0853 19.188L35.0797 19.155L35.0614 19.1264C35.027 19.0727 35.0236 19.0201 35.0236 18.9077V18.8948L35.0215 18.8819C34.9842 18.65 34.8748 18.4341 34.7079 18.2626C34.5413 18.0916 34.3251 17.9726 34.0872 17.9209C33.8497 17.8647 33.6001 17.8771 33.3699 17.9565C33.1403 18.0358 32.9401 18.1783 32.7944 18.3662C32.6733 18.5103 32.574 18.6702 32.4996 18.841C32.3307 19.2091 32.1604 19.578 31.9896 19.948L31.9866 19.9544C31.5602 20.878 31.1309 21.8077 30.7141 22.7448L30.7128 22.7479C30.4569 23.3555 30.2457 23.9957 30.0352 24.634C29.9932 24.7614 29.9511 24.8887 29.9088 25.0157C29.8328 25.2172 29.7995 25.4311 29.8109 25.645C29.7971 25.8364 29.8448 26.0274 29.9478 26.1921C30.0528 26.3602 30.2102 26.4924 30.3976 26.5703C30.5962 26.6538 30.8182 26.6716 31.0286 26.6207C31.2385 26.5699 31.4248 26.4536 31.5584 26.2902C31.7289 26.0888 31.8756 25.8692 31.9953 25.6365C32.3484 24.9433 32.6859 24.2416 33.0218 23.543C33.1518 23.2728 33.2781 23.0308 33.4217 22.7672C33.4316 22.7997 33.4417 22.8314 33.4521 22.8631C33.6027 23.4995 33.8569 24.109 34.2053 24.6694C34.2712 24.7881 34.3631 24.8918 34.4745 24.9735C34.5873 25.0561 34.7175 25.1141 34.856 25.1436C34.9946 25.1731 35.1381 25.1732 35.2767 25.144C35.4151 25.1149 35.5457 25.0568 35.6585 24.9745L35.8819 24.8141L37.6158 23.4124L37.5132 24.0395C37.3725 24.9015 37.2328 25.7564 37.0844 26.6114C36.9874 26.9904 36.9875 27.3862 37.0849 27.7651C37.127 27.9783 37.2344 28.1746 37.3934 28.3289C37.5538 28.4845 37.7591 28.5902 37.9828 28.6324C38.2065 28.6745 38.4383 28.6512 38.648 28.5653C38.8547 28.4808 39.0305 28.3393 39.1533 28.1591C39.4392 27.8187 39.6171 27.4065 39.666 26.9717C39.7396 26.3577 39.8227 25.7353 39.9059 25.1131C40.0017 24.396 40.0976 23.679 40.1785 22.9758L40.1787 22.9737C40.2566 22.2039 40.2943 21.431 40.2917 20.6576C40.3087 20.4132 40.2453 20.1698 40.1102 19.9617C39.9747 19.7529 39.7739 19.5906 39.5366 19.4977C39.2898 19.39 39.0135 19.3612 38.7484 19.4156C38.485 19.4697 38.2466 19.603 38.0677 19.796C37.7479 20.0799 37.4479 20.3836 37.1696 20.7053L37.1677 20.7075C36.8639 21.0709 36.5621 21.4414 36.2624 21.8095C36.0801 22.0332 35.8983 22.2565 35.7175 22.4763Z" fill="#3A3B7B"/>
</g>
<defs>
<clipPath id="clip0_120_987">
<rect width="47" height="29" fill="white" transform="translate(0 0.84668)"/>
</clipPath>
</defs>
</svg>
