<svg width="32" height="33" viewBox="0 0 32 33" fill="none" xmlns="http://www.w3.org/2000/svg">
<g id="Social Icons">
<path id="BG" opacity="0.1" fill-rule="evenodd" clip-rule="evenodd" d="M0 16.6718C0 7.8352 7.16344 0.671753 16 0.671753C24.8366 0.671753 32 7.8352 32 16.6718C32 25.5083 24.8366 32.6718 16 32.6718C7.16344 32.6718 0 25.5083 0 16.6718Z" fill="white"/>
<path id="Path" fill-rule="evenodd" clip-rule="evenodd" d="M22.6679 11.1713C23.4022 11.3728 23.9805 11.9666 24.1768 12.7206C24.5335 14.0871 24.5335 16.9384 24.5335 16.9384C24.5335 16.9384 24.5335 19.7897 24.1768 21.1563C23.9805 21.9103 23.4022 22.5041 22.6679 22.7057C21.3371 23.0718 16.0001 23.0718 16.0001 23.0718C16.0001 23.0718 10.6632 23.0718 9.3323 22.7057C8.59795 22.5041 8.01962 21.9103 7.82335 21.1563C7.4668 19.7897 7.4668 16.9384 7.4668 16.9384C7.4668 16.9384 7.4668 14.0871 7.82335 12.7206C8.01962 11.9666 8.59795 11.3728 9.3323 11.1713C10.6632 10.8051 16.0001 10.8051 16.0001 10.8051C16.0001 10.8051 21.3371 10.8051 22.6679 11.1713ZM14.4001 14.5384V19.8717L18.6668 17.2052L14.4001 14.5384Z" fill="white"/>
</g>
</svg>
